<?xml version="1.0" encoding="UTF-8" standalone="no"?>
<svg
   xmlns:dc="http://purl.org/dc/elements/1.1/"
   xmlns:cc="http://creativecommons.org/ns#"
   xmlns:rdf="http://www.w3.org/1999/02/22-rdf-syntax-ns#"
   xmlns:svg="http://www.w3.org/2000/svg"
   xmlns="http://www.w3.org/2000/svg"
   xmlns:sodipodi="http://sodipodi.sourceforge.net/DTD/sodipodi-0.dtd"
   xmlns:inkscape="http://www.inkscape.org/namespaces/inkscape"
   inkscape:export-ydpi="90"
   inkscape:export-xdpi="90"
   inkscape:export-filename="/Users/mquezada/Documents/drawing.png"
   sodipodi:docname="logo-feedback.svg"
   inkscape:version="1.0beta1 (fe3e306, 2019-09-17)"
   version="1.1"
   id="svg2"
   viewBox="0 0 563.48387 167.17486"
   height="1.8574984in"
   width="6.260932in">
  <defs
     id="defs4" />
  <sodipodi:namedview
     inkscape:document-rotation="0"
     units="in"
     fit-margin-bottom="0.5"
     fit-margin-right="0.1"
     fit-margin-left="0.1"
     fit-margin-top="0.1"
     inkscape:window-maximized="1"
     inkscape:window-y="-11"
     inkscape:window-x="-11"
     inkscape:window-height="986"
     inkscape:window-width="1920"
     showgrid="false"
     inkscape:current-layer="layer2"
     inkscape:document-units="px"
     inkscape:cy="103.06799"
     inkscape:cx="247.93101"
     inkscape:zoom="0.9899495"
     inkscape:pageshadow="2"
     inkscape:pageopacity="0.0"
     borderopacity="1.0"
     bordercolor="#666666"
     pagecolor="#ffffff"
     id="base" />
  <metadata
     id="metadata7">
    <rdf:RDF>
      <cc:Work
         rdf:about="">
        <dc:format>image/svg+xml</dc:format>
        <dc:type
           rdf:resource="http://purl.org/dc/dcmitype/StillImage" />
        <dc:title></dc:title>
      </cc:Work>
    </rdf:RDF>
  </metadata>
  <g
     transform="translate(3.3345725,-25.515535)"
     style="display:inline"
     inkscape:label="Capa 2"
     id="layer2"
     inkscape:groupmode="layer">
    <g
       style="font-style:normal;font-weight:normal;font-size:147.941px;line-height:1.25;font-family:sans-serif;fill:#000000;fill-opacity:1;stroke:none;stroke-width:3.69855"
       id="text834"
       aria-label="Feedback">
      <path
         id="path840"
         style="font-style:normal;font-variant:normal;font-weight:normal;font-stretch:normal;font-family:MankSans-Medium;-inkscape-font-specification:MankSans-Medium;stroke-width:3.69855"
         d="M 53.006546,49.753457 V 45.315228 L 52.562723,44.1317 51.527136,42.948172 50.343608,42.356408 H 8.4763065 l -1.183528,0.591764 q -1.1835279,0.887646 -1.6273509,2.367056 v 98.676642 q 0.295882,0.73971 0.739705,1.33147 0.443823,0.44382 0.8876459,0.88765 l 1.183528,0.59176 h 3.8464655 l 1.183528,-0.59176 q 0.443823,-0.44383 0.887646,-0.88765 0.443823,-0.59176 0.739705,-1.33147 V 98.130163 h 20.267916 q 1.775292,0 3.994407,0.295882 2.367056,0.295881 4.43823,0.147941 2.071174,-0.147941 3.402643,-1.183528 1.47941,-1.035587 1.47941,-3.698525 0,-1.627351 -0.443823,-3.106761 -0.443823,-1.627351 -2.514997,-1.627351 H 15.133651 V 51.67669 q 4.290289,0 8.580578,0 4.290289,-0.147941 8.580578,-0.147941 h 7.840872 q 2.514997,0 5.029994,0.147941 2.514997,0 5.029994,0.147941 l 1.331469,-0.591764 z" />
      <path
         id="path842"
         style="font-style:normal;font-variant:normal;font-weight:normal;font-stretch:normal;font-family:MankSans-Medium;-inkscape-font-specification:MankSans-Medium;stroke-width:3.69855"
         d="m 125.53462,109.0778 q 0,-6.80529 -1.33147,-13.018811 -1.33147,-6.213522 -4.43823,-10.947634 -3.10676,-4.882053 -8.43264,-7.692932 -5.17793,-2.810879 -13.018805,-2.810879 -7.840873,0 -13.906454,2.514997 -6.06558,2.514997 -10.207928,7.101168 -3.994407,4.43823 -6.065581,10.799693 -2.071174,6.361458 -2.071174,13.906458 0,8.43263 1.627351,15.5338 1.627351,7.10117 5.325876,12.2791 3.846466,5.17794 10.059987,8.13676 6.361463,2.81088 15.681746,2.81088 5.621762,0 11.983222,-1.47941 6.36146,-1.47941 11.24351,-4.43823 l 0.88765,-1.62736 v -2.21911 q 0,-1.47941 -0.44382,-3.40264 -0.29589,-1.92324 -2.36706,-1.92324 -0.44382,0 -2.66294,1.03559 -2.07117,1.03559 -5.17793,2.21912 -2.95882,1.18352 -6.50941,2.21911 -3.55058,1.03559 -6.953222,1.03559 -6.065581,0 -10.35587,-1.92323 -4.290289,-2.07118 -7.101168,-5.62176 -2.662937,-3.55059 -4.142347,-8.2847 -1.47941,-4.73411 -1.627351,-10.20793 11.98322,0 23.8185,-0.29588 11.983218,-0.44382 23.966438,-0.88765 0.59177,-0.59176 1.18353,-1.33146 0.73971,-0.73971 1.03559,-1.47941 z m -9.61617,-5.7697 q -8.87646,0.7397 -17.900857,0.88764 -8.87646,0.14794 -17.900861,0.14794 h -4.58617 q 0.739705,-9.61616 6.953226,-15.385859 6.213522,-5.769699 15.829687,-5.769699 4.290285,0 7.397045,1.775292 3.25471,1.627351 5.32588,4.43823 2.21912,2.810879 3.40264,6.509404 1.18353,3.550583 1.47941,7.397052 z" />
      <path
         id="path844"
         style="font-style:normal;font-variant:normal;font-weight:normal;font-stretch:normal;font-family:MankSans-Medium;-inkscape-font-specification:MankSans-Medium;stroke-width:3.69855"
         d="m 198.34933,109.0778 q 0,-6.80529 -1.33147,-13.018811 -1.33147,-6.213522 -4.43823,-10.947634 -3.10676,-4.882053 -8.43264,-7.692932 -5.17793,-2.810879 -13.0188,-2.810879 -7.84088,0 -13.90646,2.514997 -6.06558,2.514997 -10.20792,7.101168 -3.99441,4.43823 -6.06559,10.799693 -2.07117,6.361458 -2.07117,13.906458 0,8.43263 1.62735,15.5338 1.62735,7.10117 5.32588,12.2791 3.84646,5.17794 10.05998,8.13676 6.36147,2.81088 15.68175,2.81088 5.62176,0 11.98322,-1.47941 6.36146,-1.47941 11.24352,-4.43823 l 0.88764,-1.62736 v -2.21911 q 0,-1.47941 -0.44382,-3.40264 -0.29588,-1.92324 -2.36706,-1.92324 -0.44382,0 -2.66293,1.03559 -2.07118,1.03559 -5.17794,2.21912 -2.95882,1.18352 -6.5094,2.21911 -3.55059,1.03559 -6.95323,1.03559 -6.06558,0 -10.35587,-1.92323 -4.29029,-2.07118 -7.10117,-5.62176 -2.66293,-3.55059 -4.14234,-8.2847 -1.47941,-4.73411 -1.62736,-10.20793 11.98322,0 23.8185,-0.29588 11.98322,-0.44382 23.96645,-0.88765 0.59176,-0.59176 1.18352,-1.33146 0.73971,-0.73971 1.03559,-1.47941 z m -9.61616,-5.7697 q -8.87646,0.7397 -17.90086,0.88764 -8.87646,0.14794 -17.90086,0.14794 h -4.58618 q 0.73971,-9.61616 6.95323,-15.385859 6.21352,-5.769699 15.82969,-5.769699 4.29029,0 7.39705,1.775292 3.2547,1.627351 5.32587,4.43823 2.21912,2.810879 3.40265,6.509404 1.18352,3.550583 1.47941,7.397052 z" />
      <path
         id="path846"
         style="font-style:normal;font-variant:normal;font-weight:normal;font-stretch:normal;font-family:MankSans-Medium;-inkscape-font-specification:MankSans-Medium;stroke-width:3.69855"
         d="M 273.38314,144.58363 V 37.474355 q -0.29588,-0.739705 -0.7397,-1.183528 -0.44383,-0.591764 -0.88765,-1.035587 l -1.18353,-0.591764 h -3.69852 q -0.73971,0.295882 -1.62735,1.183528 -0.88765,0.887646 -1.18353,1.627351 v 38.168776 q -3.99441,-0.295882 -7.98881,-0.443823 -3.99441,-0.295882 -7.98882,-0.295882 -18.7885,0 -27.66496,9.468224 -8.72852,9.320283 -8.72852,27.81291 0,7.69293 1.62735,14.20233 1.77529,6.50941 5.47382,11.24352 3.69852,4.73411 9.46822,7.39705 5.91764,2.66294 14.20233,2.66294 6.50941,0 12.13117,-2.95882 5.76969,-2.95882 9.7641,-7.98882 l 0.14794,7.24911 q 0.29588,0.73971 0.73971,1.33147 0.44382,0.44382 0.88764,0.88765 l 1.18353,0.59176 h 3.2547 q 0.73971,-0.29588 1.47941,-0.88765 0.88765,-0.7397 1.33147,-1.33147 z m -9.32028,-59.768157 q 0,3.994407 0.29588,9.616165 0.29588,5.621762 0.14794,11.687342 -0.14794,5.91764 -1.18353,11.83528 -0.88764,5.91764 -3.2547,10.65175 -2.36705,4.73411 -6.65734,7.69293 -4.14235,2.81088 -10.79969,2.81088 -6.06559,0 -10.20793,-2.21912 -4.14235,-2.21911 -6.65735,-5.91764 -2.51499,-3.69852 -3.69852,-8.58057 -1.03559,-4.88206 -1.03559,-10.20793 0,-13.610574 6.36146,-21.155565 6.50941,-7.544991 20.71174,-7.544991 3.99441,0 7.98882,0.295882 4.14234,0.147941 7.98881,1.035587 z" />
      <path
         id="path848"
         style="font-style:normal;font-variant:normal;font-weight:normal;font-stretch:normal;font-family:MankSans-Medium;-inkscape-font-specification:MankSans-Medium;stroke-width:3.69855"
         d="m 347.62178,105.52721 q 0,-15.23792 -7.24911,-22.930852 -7.24911,-7.692932 -22.78291,-7.692932 -6.06558,0 -11.68734,2.071174 -5.47382,1.923233 -9.76411,6.213522 V 37.474355 q -0.29588,-0.739705 -1.18353,-1.627351 -0.88764,-0.887646 -1.62735,-1.183528 h -3.84646 q -0.88765,0.295882 -1.62735,1.183528 -0.73971,0.887646 -1.03559,1.627351 V 144.28775 q 0,0.88765 0.59176,1.92324 0.73971,0.88764 1.7753,0.88764 1.18352,0 2.07117,0 1.03559,0 2.21911,-0.29588 4.29029,0.59176 8.58058,0.7397 4.29029,0.14795 8.58058,0.14795 8.87646,0 15.68175,-3.40265 6.95322,-3.55058 11.68733,-9.32028 4.73412,-5.91764 7.10117,-13.46263 2.515,-7.69293 2.515,-15.97763 z m -9.32028,0 q 0,6.21352 -1.7753,12.2791 -1.62735,6.06559 -5.17793,10.7997 -3.40264,4.73411 -8.58058,7.69293 -5.17793,2.81088 -12.13116,2.81088 -3.69853,0 -7.39705,0 -3.55058,-0.14794 -7.10117,-0.44383 v -38.31671 q 0,-3.846468 2.07118,-6.953229 2.07117,-3.106761 5.17793,-5.325876 3.2547,-2.219115 6.95323,-3.402643 3.84646,-1.183528 7.24911,-1.183528 10.94763,0 15.82968,5.769699 4.88206,5.769699 4.88206,16.273507 z" />
      <path
         id="path850"
         style="font-style:normal;font-variant:normal;font-weight:normal;font-stretch:normal;font-family:MankSans-Medium;-inkscape-font-specification:MankSans-Medium;stroke-width:3.69855"
         d="M 414.18831,143.99187 V 96.502812 q 0,-6.361463 -1.62735,-10.503811 -1.62735,-4.290289 -4.88206,-6.657345 -3.10676,-2.514997 -7.69293,-3.402643 -4.58617,-1.035587 -10.50381,-1.035587 -2.81088,0 -6.80528,1.035587 -3.99441,0.887646 -7.69294,2.219115 -3.69852,1.183528 -6.36146,2.219115 -2.515,0.887646 -2.515,0.887646 l -0.88764,1.775292 v 2.219115 q 0,1.47941 0.29588,3.550584 0.44382,1.923233 2.515,1.923233 0.44382,0 2.51499,-1.035587 2.21912,-1.183528 5.17794,-2.514997 3.10676,-1.47941 6.65734,-2.514997 3.69853,-1.183528 7.24911,-1.183528 7.10117,0 11.09558,2.662938 4.14234,2.662938 4.14234,10.35587 v 5.917638 q -4.29028,0 -9.17234,0.14794 -4.88205,0 -9.7641,0.59177 -4.88206,0.44382 -9.46823,1.77529 -4.43823,1.33147 -7.98881,3.99441 -3.40264,2.51499 -5.47382,6.5094 -2.07117,3.99441 -2.07117,10.05999 0,4.88205 1.62735,9.0244 1.62735,4.14234 4.58617,7.10116 3.10676,2.81088 7.10117,4.43823 4.14235,1.62736 9.0244,1.62736 6.65734,0 12.2791,-2.81088 5.62176,-2.81088 9.61617,-8.13676 l 0.14794,7.24911 q 0.29588,0.73971 0.7397,1.33147 0.44383,0.44382 0.88765,0.88765 l 1.18353,0.59176 h 3.10676 q 0.88764,-0.29588 1.77529,-1.03559 0.88764,-0.88764 1.18353,-1.77529 z m -8.87646,-34.32231 -0.73971,1.47941 q 0,5.17793 -1.03558,10.20793 -1.03559,4.88205 -3.55059,8.87646 -2.36705,3.99441 -6.5094,6.5094 -4.14235,2.36706 -10.35587,2.36706 -2.81088,0 -5.03,-1.18353 -2.21911,-1.18353 -3.84646,-2.95882 -1.62735,-1.92323 -2.515,-4.29029 -0.88764,-2.515 -0.88764,-5.17793 0,-3.99441 1.47941,-6.65735 1.47941,-2.66294 3.9944,-4.29029 2.515,-1.77529 5.62176,-2.66294 3.10676,-0.88764 6.5094,-1.18352 1.47941,-0.14794 3.10676,0 1.7753,0 2.95882,-0.29588 2.66294,-0.73971 5.32588,-0.29589 2.81088,0.29589 5.47382,-0.44382 z" />
      <path
         id="path852"
         style="font-style:normal;font-variant:normal;font-weight:normal;font-stretch:normal;font-family:MankSans-Medium;-inkscape-font-specification:MankSans-Medium;stroke-width:3.69855"
         d="m 484.49957,137.48247 q 0,-1.47941 -0.44382,-2.81088 -0.29589,-1.33147 -1.7753,-2.07118 -0.7397,0 -3.10676,1.03559 -2.21911,1.03559 -5.47381,2.21912 -3.2547,1.18352 -6.95323,2.21911 -3.55058,1.03559 -6.95323,1.03559 -6.5094,0 -10.94763,-2.515 -4.29029,-2.515 -7.10117,-6.5094 -2.81088,-4.14235 -3.9944,-9.46823 -1.18353,-5.32587 -1.18353,-10.94763 0,-5.62176 1.33147,-10.35587 1.33147,-4.882052 4.14234,-8.432636 2.95882,-3.550584 7.24911,-5.621758 4.43823,-2.071174 10.50381,-2.071174 2.81088,0 5.62176,0.739705 2.95882,0.739705 5.62176,1.627351 2.81088,0.887646 5.02999,1.627351 2.36706,0.739705 3.84647,0.739705 1.18353,0 1.92323,-0.739705 0.73971,-0.887646 0.73971,-2.071174 v -4.882053 l -1.18353,-1.775292 q -5.03,-2.071174 -10.65175,-2.95882 -5.47382,-0.887646 -10.94764,-0.887646 -8.28469,0 -14.35027,2.514997 -6.06558,2.514997 -10.20793,7.249109 -3.99441,4.586171 -6.06558,11.095575 -1.92324,6.361465 -1.92324,14.202335 0,8.13675 1.62736,15.08998 1.77529,6.95323 5.62175,12.13116 3.84647,5.03 10.05999,7.98882 6.21352,2.81088 15.23792,2.81088 5.91764,0 12.27911,-1.47941 6.5094,-1.47941 11.68733,-4.43823 l 0.73971,-1.62736 z" />
      <path
         id="path854"
         style="font-style:normal;font-variant:normal;font-weight:normal;font-stretch:normal;font-family:MankSans-Medium;-inkscape-font-specification:MankSans-Medium;stroke-width:3.69855"
         d="m 551.14931,143.99187 q 0,-0.44382 -2.66294,-3.2547 -2.515,-2.81088 -6.50941,-6.65735 -3.9944,-3.9944 -8.87646,-8.58057 -4.73411,-4.58617 -9.0244,-8.58058 -4.29029,-4.14235 -7.69293,-7.24911 -3.40264,-3.10676 -4.43823,-4.14235 l 32.69496,-26.481436 0.73971,-1.331469 q 0,-1.331469 -0.88765,-2.219115 -0.7397,-1.035587 -2.07117,-1.035587 h -5.62176 q -7.54499,6.213522 -14.7941,12.427044 -7.24911,6.065581 -14.7941,12.279102 V 37.326414 q -0.29588,-0.739705 -1.18353,-1.627351 -0.88764,-0.887646 -1.62735,-1.183528 h -3.55058 q -0.88765,0.295882 -1.77529,1.183528 -0.88765,0.739705 -1.18353,1.627351 V 143.99187 l 0.7397,1.33147 1.77529,1.47941 h 4.14235 q 0.73971,-0.29588 1.62735,-1.18353 0.88765,-0.88764 1.18353,-1.62735 V 113.0722 l 35.06202,33.73055 h 5.7697 q 1.03558,0 1.92323,-0.88765 1.03559,-0.88764 1.03559,-1.92323 z" />
    </g>
    <g
       style="font-style:normal;font-weight:normal;font-size:37.5px;line-height:1.25;font-family:sans-serif;fill:#000000;fill-opacity:1;stroke:none;stroke-width:0.9375"
       id="text838"
       aria-label="by botlab">
      <path
         id="path857"
         style="stroke-width:0.9375"
         d="m 397.80637,172.33846 q 0,2.56347 -0.73243,4.61425 -0.71411,2.05078 -1.94091,3.44239 -1.30005,1.44653 -2.85645,2.17895 -1.5564,0.71411 -3.42407,0.71411 -1.7395,0 -3.03955,-0.42114 -1.30005,-0.40283 -2.56348,-1.09863 l -0.21973,0.95215 h -3.22265 v -28.49122 h 3.44238 v 10.18067 q 1.44653,-1.19019 3.07617,-1.94092 1.62964,-0.76904 3.66211,-0.76904 3.62549,0 5.71289,2.7832 2.10572,2.7832 2.10572,7.85523 z m -3.55225,0.0916 q 0,-3.66211 -1.2085,-5.5481 -1.20849,-1.90429 -3.90014,-1.90429 -1.50147,0 -3.03955,0.65918 -1.53809,0.64086 -2.85645,1.66625 v 11.71875 q 1.46484,0.65918 2.50855,0.91553 1.06201,0.25635 2.39868,0.25635 2.85644,0 4.46777,-1.86768 1.62964,-1.88598 1.62964,-5.89599 z" />
      <path
         id="path859"
         style="stroke-width:0.9375"
         d="m 420.7861,162.26765 -11.93847,27.99683 h -3.68042 l 3.80859,-8.53271 -8.14819,-19.46412 h 3.73535 l 6.28052,15.16114 6.33544,-15.16114 z" />
      <path
         id="path861"
         style="stroke-width:0.9375"
         d="m 456.47336,172.33846 q 0,2.56347 -0.73242,4.61425 -0.71412,2.05078 -1.94092,3.44239 -1.30005,1.44653 -2.85645,2.17895 -1.55639,0.71411 -3.42407,0.71411 -1.7395,0 -3.03955,-0.42114 -1.30005,-0.40283 -2.56348,-1.09863 l -0.21972,0.95215 h -3.22266 v -28.49122 h 3.44238 v 10.18067 q 1.44654,-1.19019 3.07618,-1.94092 1.62963,-0.76904 3.6621,-0.76904 3.62549,0 5.7129,2.7832 2.10571,2.7832 2.10571,7.85523 z m -3.55225,0.0916 q 0,-3.66211 -1.20849,-5.5481 -1.2085,-1.90429 -3.90015,-1.90429 -1.50147,0 -3.03955,0.65918 -1.53809,0.64086 -2.85645,1.66625 v 11.71875 q 1.46485,0.65918 2.50855,0.91553 1.06201,0.25635 2.39868,0.25635 2.85645,0 4.46777,-1.86768 1.62964,-1.88598 1.62964,-5.89599 z" />
      <path
         id="path863"
         style="stroke-width:0.9375"
         d="m 479.26999,172.50325 q 0,4.99878 -2.56348,7.89185 -2.56347,2.89306 -6.86645,2.89306 -4.3396,0 -6.90308,-2.89306 -2.54516,-2.89307 -2.54516,-7.89185 0,-4.99878 2.54516,-7.89185 2.56348,-2.91137 6.90308,-2.91137 4.30298,0 6.86645,2.91137 2.56348,2.89307 2.56348,7.89185 z m -3.55225,0 q 0,-3.97339 -1.55639,-5.896 -1.5564,-1.94091 -4.32129,-1.94091 -2.80152,0 -4.35791,1.94091 -1.53809,1.92261 -1.53809,5.896 0,3.84521 1.5564,5.84106 1.55639,1.97754 4.3396,1.97754 2.74658,0 4.30298,-1.95922 1.5747,-1.97754 1.5747,-5.85938 z" />
      <path
         id="path865"
         style="stroke-width:0.9375"
         d="m 495.23679,182.53743 q -0.97046,0.25635 -2.12403,0.42114 -1.13525,0.1648 -2.03247,0.1648 -3.1311,0 -4.76074,-1.68457 -1.62964,-1.68457 -1.62964,-5.40161 v -10.87647 h -2.32544 v -2.89307 h 2.32544 v -5.87768 h 3.44238 v 5.87768 h 7.1045 v 2.89307 h -7.1045 v 9.32007 q 0,1.61133 0.0732,2.52685 0.0732,0.89722 0.51269,1.68457 0.40283,0.73243 1.09863,1.08033 0.71412,0.32959 2.16065,0.32959 0.84228,0 1.75781,-0.23804 0.91553,-0.25635 1.31836,-0.42114 h 0.18311 z" />
      <path
         id="path867"
         style="stroke-width:0.9375"
         d="m 502.89059,182.72054 h -3.44238 v -28.49122 h 3.44238 z" />
      <path
         id="path869"
         style="stroke-width:0.9375"
         d="m 525.63229,182.72054 h -3.42407 v -2.17896 q -0.45776,0.31128 -1.24512,0.87891 -0.76904,0.54931 -1.50146,0.8789 -0.8606,0.42115 -1.97754,0.6958 -1.11694,0.29297 -2.61841,0.29297 -2.76489,0 -4.6875,-1.83105 -1.92261,-1.83106 -1.92261,-4.66919 0,-2.32544 0.98877,-3.75366 1.00708,-1.44654 2.85645,-2.27051 1.86768,-0.82398 4.48608,-1.11695 2.61841,-0.29296 5.62134,-0.43945 v -0.531 q 0,-1.17188 -0.42114,-1.94092 -0.40283,-0.76905 -1.17188,-1.2085 -0.73242,-0.42114 -1.75781,-0.56763 -1.02539,-0.14648 -2.14233,-0.14648 -1.35498,0 -3.02124,0.36621 -1.66626,0.3479 -3.44239,1.02539 h -0.1831 v -3.49731 q 1.00708,-0.27466 2.91138,-0.60425 1.90429,-0.32959 3.75366,-0.32959 2.16064,0 3.75366,0.36621 1.61133,0.3479 2.7832,1.2085 1.15357,0.84228 1.75782,2.17895 0.60424,1.33667 0.60424,3.31421 z m -3.42407,-5.03541 v -5.69458 q -1.57471,0.0916 -3.71704,0.27466 -2.12402,0.18311 -3.36914,0.53101 -1.48315,0.42114 -2.39868,1.31836 -0.91553,0.8789 -0.91553,2.4353 0,1.75781 1.06201,2.65503 1.06201,0.87891 3.24097,0.87891 1.81274,0 3.31421,-0.6958 1.50146,-0.71412 2.7832,-1.70289 z" />
      <path
         id="path871"
         style="stroke-width:0.9375"
         d="m 550.2966,172.33846 q 0,2.56347 -0.73242,4.61425 -0.71411,2.05078 -1.94092,3.44239 -1.30005,1.44653 -2.85644,2.17895 -1.5564,0.71411 -3.42408,0.71411 -1.7395,0 -3.03955,-0.42114 -1.30005,-0.40283 -2.56347,-1.09863 l -0.21973,0.95215 h -3.22266 v -28.49122 h 3.44239 v 10.18067 q 1.44653,-1.19019 3.07617,-1.94092 1.62964,-0.76904 3.66211,-0.76904 3.62549,0 5.71289,2.7832 2.10571,2.7832 2.10571,7.85523 z m -3.55225,0.0916 q 0,-3.66211 -1.20849,-5.5481 -1.2085,-1.90429 -3.90015,-1.90429 -1.50146,0 -3.03955,0.65918 -1.53809,0.64086 -2.85644,1.66625 v 11.71875 q 1.46484,0.65918 2.50854,0.91553 1.06201,0.25635 2.39868,0.25635 2.85645,0 4.46778,-1.86768 1.62963,-1.88598 1.62963,-5.89599 z" />
    </g>
  </g>
</svg>
