<?xml version="1.0" encoding="UTF-8" standalone="no"?>
<svg
   xmlns:dc="http://purl.org/dc/elements/1.1/"
   xmlns:cc="http://creativecommons.org/ns#"
   xmlns:rdf="http://www.w3.org/1999/02/22-rdf-syntax-ns#"
   xmlns:svg="http://www.w3.org/2000/svg"
   xmlns="http://www.w3.org/2000/svg"
   xmlns:sodipodi="http://sodipodi.sourceforge.net/DTD/sodipodi-0.dtd"
   xmlns:inkscape="http://www.inkscape.org/namespaces/inkscape"
   inkscape:export-ydpi="90"
   inkscape:export-xdpi="90"
   inkscape:export-filename="/Users/mquezada/Documents/drawing.png"
   sodipodi:docname="logo-feedback.svg"
   inkscape:version="1.0beta1 (fe3e306, 2019-09-17)"
   version="1.1"
   id="svg2"
   viewBox="0 0 564.06018 178.70962"
   height="1.9856625in"
   width="6.2673354in">
  <defs
     id="defs4" />
  <sodipodi:namedview
     inkscape:document-rotation="0"
     units="in"
     fit-margin-bottom="0.1"
     fit-margin-right="0.1"
     fit-margin-left="0.1"
     fit-margin-top="0.1"
     inkscape:window-maximized="1"
     inkscape:window-y="-11"
     inkscape:window-x="-11"
     inkscape:window-height="986"
     inkscape:window-width="1920"
     showgrid="false"
     inkscape:current-layer="layer2"
     inkscape:document-units="px"
     inkscape:cy="103.06799"
     inkscape:cx="247.93101"
     inkscape:zoom="0.9899495"
     inkscape:pageshadow="2"
     inkscape:pageopacity="0.0"
     borderopacity="1.0"
     bordercolor="#666666"
     pagecolor="#ffffff"
     id="base" />
  <metadata
     id="metadata7">
    <rdf:RDF>
      <cc:Work
         rdf:about="">
        <dc:format>image/svg+xml</dc:format>
        <dc:type
           rdf:resource="http://purl.org/dc/dcmitype/StillImage" />
        <dc:title></dc:title>
      </cc:Work>
    </rdf:RDF>
  </metadata>
  <g
     transform="translate(3.3345725,-25.515535)"
     style="display:inline"
     inkscape:label="Capa 2"
     id="layer2"
     inkscape:groupmode="layer">
    <g
       style="font-style:normal;font-weight:normal;font-size:147.941px;line-height:1.25;font-family:sans-serif;fill:#000000;fill-opacity:1;stroke:none;stroke-width:3.69855"
       id="text834"
       aria-label="Feedback">
      <path
         inkscape:connector-curvature="0"
         id="path840"
         style="font-style:normal;font-variant:normal;font-weight:normal;font-stretch:normal;font-family:MankSans-Medium;-inkscape-font-specification:MankSans-Medium;stroke-width:3.69855"
         d="M 53.006546,49.753457 V 45.315228 L 52.562723,44.1317 51.527136,42.948172 50.343608,42.356408 H 8.4763065 l -1.183528,0.591764 q -1.1835279,0.887646 -1.6273509,2.367056 v 98.676642 q 0.295882,0.73971 0.739705,1.33147 0.443823,0.44382 0.8876459,0.88765 l 1.183528,0.59176 h 3.8464655 l 1.183528,-0.59176 q 0.443823,-0.44383 0.887646,-0.88765 0.443823,-0.59176 0.739705,-1.33147 V 98.130163 h 20.267916 q 1.775292,0 3.994407,0.295882 2.367056,0.295881 4.43823,0.147941 2.071174,-0.147941 3.402643,-1.183528 1.47941,-1.035587 1.47941,-3.698525 0,-1.627351 -0.443823,-3.106761 -0.443823,-1.627351 -2.514997,-1.627351 H 15.133651 V 51.67669 q 4.290289,0 8.580578,0 4.290289,-0.147941 8.580578,-0.147941 h 7.840872 q 2.514997,0 5.029994,0.147941 2.514997,0 5.029994,0.147941 l 1.331469,-0.591764 z" />
      <path
         inkscape:connector-curvature="0"
         id="path842"
         style="font-style:normal;font-variant:normal;font-weight:normal;font-stretch:normal;font-family:MankSans-Medium;-inkscape-font-specification:MankSans-Medium;stroke-width:3.69855"
         d="m 125.53462,109.0778 q 0,-6.80529 -1.33147,-13.018811 -1.33147,-6.213522 -4.43823,-10.947634 -3.10676,-4.882053 -8.43264,-7.692932 -5.17793,-2.810879 -13.018805,-2.810879 -7.840873,0 -13.906454,2.514997 -6.06558,2.514997 -10.207928,7.101168 -3.994407,4.43823 -6.065581,10.799693 -2.071174,6.361458 -2.071174,13.906458 0,8.43263 1.627351,15.5338 1.627351,7.10117 5.325876,12.2791 3.846466,5.17794 10.059987,8.13676 6.361463,2.81088 15.681746,2.81088 5.621762,0 11.983222,-1.47941 6.36146,-1.47941 11.24351,-4.43823 l 0.88765,-1.62736 v -2.21911 q 0,-1.47941 -0.44382,-3.40264 -0.29589,-1.92324 -2.36706,-1.92324 -0.44382,0 -2.66294,1.03559 -2.07117,1.03559 -5.17793,2.21912 -2.95882,1.18352 -6.50941,2.21911 -3.55058,1.03559 -6.953222,1.03559 -6.065581,0 -10.35587,-1.92323 -4.290289,-2.07118 -7.101168,-5.62176 -2.662937,-3.55059 -4.142347,-8.2847 -1.47941,-4.73411 -1.627351,-10.20793 11.98322,0 23.8185,-0.29588 11.983218,-0.44382 23.966438,-0.88765 0.59177,-0.59176 1.18353,-1.33146 0.73971,-0.73971 1.03559,-1.47941 z m -9.61617,-5.7697 q -8.87646,0.7397 -17.900857,0.88764 -8.87646,0.14794 -17.900861,0.14794 h -4.58617 q 0.739705,-9.61616 6.953226,-15.385859 6.213522,-5.769699 15.829687,-5.769699 4.290285,0 7.397045,1.775292 3.25471,1.627351 5.32588,4.43823 2.21912,2.810879 3.40264,6.509404 1.18353,3.550583 1.47941,7.397052 z" />
      <path
         inkscape:connector-curvature="0"
         id="path844"
         style="font-style:normal;font-variant:normal;font-weight:normal;font-stretch:normal;font-family:MankSans-Medium;-inkscape-font-specification:MankSans-Medium;stroke-width:3.69855"
         d="m 198.34933,109.0778 q 0,-6.80529 -1.33147,-13.018811 -1.33147,-6.213522 -4.43823,-10.947634 -3.10676,-4.882053 -8.43264,-7.692932 -5.17793,-2.810879 -13.0188,-2.810879 -7.84088,0 -13.90646,2.514997 -6.06558,2.514997 -10.20792,7.101168 -3.99441,4.43823 -6.06559,10.799693 -2.07117,6.361458 -2.07117,13.906458 0,8.43263 1.62735,15.5338 1.62735,7.10117 5.32588,12.2791 3.84646,5.17794 10.05998,8.13676 6.36147,2.81088 15.68175,2.81088 5.62176,0 11.98322,-1.47941 6.36146,-1.47941 11.24352,-4.43823 l 0.88764,-1.62736 v -2.21911 q 0,-1.47941 -0.44382,-3.40264 -0.29588,-1.92324 -2.36706,-1.92324 -0.44382,0 -2.66293,1.03559 -2.07118,1.03559 -5.17794,2.21912 -2.95882,1.18352 -6.5094,2.21911 -3.55059,1.03559 -6.95323,1.03559 -6.06558,0 -10.35587,-1.92323 -4.29029,-2.07118 -7.10117,-5.62176 -2.66293,-3.55059 -4.14234,-8.2847 -1.47941,-4.73411 -1.62736,-10.20793 11.98322,0 23.8185,-0.29588 11.98322,-0.44382 23.96645,-0.88765 0.59176,-0.59176 1.18352,-1.33146 0.73971,-0.73971 1.03559,-1.47941 z m -9.61616,-5.7697 q -8.87646,0.7397 -17.90086,0.88764 -8.87646,0.14794 -17.90086,0.14794 h -4.58618 q 0.73971,-9.61616 6.95323,-15.385859 6.21352,-5.769699 15.82969,-5.769699 4.29029,0 7.39705,1.775292 3.2547,1.627351 5.32587,4.43823 2.21912,2.810879 3.40265,6.509404 1.18352,3.550583 1.47941,7.397052 z" />
      <path
         inkscape:connector-curvature="0"
         id="path846"
         style="font-style:normal;font-variant:normal;font-weight:normal;font-stretch:normal;font-family:MankSans-Medium;-inkscape-font-specification:MankSans-Medium;stroke-width:3.69855"
         d="M 273.38314,144.58363 V 37.474355 q -0.29588,-0.739705 -0.7397,-1.183528 -0.44383,-0.591764 -0.88765,-1.035587 l -1.18353,-0.591764 h -3.69852 q -0.73971,0.295882 -1.62735,1.183528 -0.88765,0.887646 -1.18353,1.627351 v 38.168776 q -3.99441,-0.295882 -7.98881,-0.443823 -3.99441,-0.295882 -7.98882,-0.295882 -18.7885,0 -27.66496,9.468224 -8.72852,9.320283 -8.72852,27.81291 0,7.69293 1.62735,14.20233 1.77529,6.50941 5.47382,11.24352 3.69852,4.73411 9.46822,7.39705 5.91764,2.66294 14.20233,2.66294 6.50941,0 12.13117,-2.95882 5.76969,-2.95882 9.7641,-7.98882 l 0.14794,7.24911 q 0.29588,0.73971 0.73971,1.33147 0.44382,0.44382 0.88764,0.88765 l 1.18353,0.59176 h 3.2547 q 0.73971,-0.29588 1.47941,-0.88765 0.88765,-0.7397 1.33147,-1.33147 z m -9.32028,-59.768157 q 0,3.994407 0.29588,9.616165 0.29588,5.621762 0.14794,11.687342 -0.14794,5.91764 -1.18353,11.83528 -0.88764,5.91764 -3.2547,10.65175 -2.36705,4.73411 -6.65734,7.69293 -4.14235,2.81088 -10.79969,2.81088 -6.06559,0 -10.20793,-2.21912 -4.14235,-2.21911 -6.65735,-5.91764 -2.51499,-3.69852 -3.69852,-8.58057 -1.03559,-4.88206 -1.03559,-10.20793 0,-13.610574 6.36146,-21.155565 6.50941,-7.544991 20.71174,-7.544991 3.99441,0 7.98882,0.295882 4.14234,0.147941 7.98881,1.035587 z" />
      <path
         inkscape:connector-curvature="0"
         id="path848"
         style="font-style:normal;font-variant:normal;font-weight:normal;font-stretch:normal;font-family:MankSans-Medium;-inkscape-font-specification:MankSans-Medium;stroke-width:3.69855"
         d="m 347.62178,105.52721 q 0,-15.23792 -7.24911,-22.930852 -7.24911,-7.692932 -22.78291,-7.692932 -6.06558,0 -11.68734,2.071174 -5.47382,1.923233 -9.76411,6.213522 V 37.474355 q -0.29588,-0.739705 -1.18353,-1.627351 -0.88764,-0.887646 -1.62735,-1.183528 h -3.84646 q -0.88765,0.295882 -1.62735,1.183528 -0.73971,0.887646 -1.03559,1.627351 V 144.28775 q 0,0.88765 0.59176,1.92324 0.73971,0.88764 1.7753,0.88764 1.18352,0 2.07117,0 1.03559,0 2.21911,-0.29588 4.29029,0.59176 8.58058,0.7397 4.29029,0.14795 8.58058,0.14795 8.87646,0 15.68175,-3.40265 6.95322,-3.55058 11.68733,-9.32028 4.73412,-5.91764 7.10117,-13.46263 2.515,-7.69293 2.515,-15.97763 z m -9.32028,0 q 0,6.21352 -1.7753,12.2791 -1.62735,6.06559 -5.17793,10.7997 -3.40264,4.73411 -8.58058,7.69293 -5.17793,2.81088 -12.13116,2.81088 -3.69853,0 -7.39705,0 -3.55058,-0.14794 -7.10117,-0.44383 v -38.31671 q 0,-3.846468 2.07118,-6.953229 2.07117,-3.106761 5.17793,-5.325876 3.2547,-2.219115 6.95323,-3.402643 3.84646,-1.183528 7.24911,-1.183528 10.94763,0 15.82968,5.769699 4.88206,5.769699 4.88206,16.273507 z" />
      <path
         inkscape:connector-curvature="0"
         id="path850"
         style="font-style:normal;font-variant:normal;font-weight:normal;font-stretch:normal;font-family:MankSans-Medium;-inkscape-font-specification:MankSans-Medium;stroke-width:3.69855"
         d="M 414.18831,143.99187 V 96.502812 q 0,-6.361463 -1.62735,-10.503811 -1.62735,-4.290289 -4.88206,-6.657345 -3.10676,-2.514997 -7.69293,-3.402643 -4.58617,-1.035587 -10.50381,-1.035587 -2.81088,0 -6.80528,1.035587 -3.99441,0.887646 -7.69294,2.219115 -3.69852,1.183528 -6.36146,2.219115 -2.515,0.887646 -2.515,0.887646 l -0.88764,1.775292 v 2.219115 q 0,1.47941 0.29588,3.550584 0.44382,1.923233 2.515,1.923233 0.44382,0 2.51499,-1.035587 2.21912,-1.183528 5.17794,-2.514997 3.10676,-1.47941 6.65734,-2.514997 3.69853,-1.183528 7.24911,-1.183528 7.10117,0 11.09558,2.662938 4.14234,2.662938 4.14234,10.35587 v 5.917638 q -4.29028,0 -9.17234,0.14794 -4.88205,0 -9.7641,0.59177 -4.88206,0.44382 -9.46823,1.77529 -4.43823,1.33147 -7.98881,3.99441 -3.40264,2.51499 -5.47382,6.5094 -2.07117,3.99441 -2.07117,10.05999 0,4.88205 1.62735,9.0244 1.62735,4.14234 4.58617,7.10116 3.10676,2.81088 7.10117,4.43823 4.14235,1.62736 9.0244,1.62736 6.65734,0 12.2791,-2.81088 5.62176,-2.81088 9.61617,-8.13676 l 0.14794,7.24911 q 0.29588,0.73971 0.7397,1.33147 0.44383,0.44382 0.88765,0.88765 l 1.18353,0.59176 h 3.10676 q 0.88764,-0.29588 1.77529,-1.03559 0.88764,-0.88764 1.18353,-1.77529 z m -8.87646,-34.32231 -0.73971,1.47941 q 0,5.17793 -1.03558,10.20793 -1.03559,4.88205 -3.55059,8.87646 -2.36705,3.99441 -6.5094,6.5094 -4.14235,2.36706 -10.35587,2.36706 -2.81088,0 -5.03,-1.18353 -2.21911,-1.18353 -3.84646,-2.95882 -1.62735,-1.92323 -2.515,-4.29029 -0.88764,-2.515 -0.88764,-5.17793 0,-3.99441 1.47941,-6.65735 1.47941,-2.66294 3.9944,-4.29029 2.515,-1.77529 5.62176,-2.66294 3.10676,-0.88764 6.5094,-1.18352 1.47941,-0.14794 3.10676,0 1.7753,0 2.95882,-0.29588 2.66294,-0.73971 5.32588,-0.29589 2.81088,0.29589 5.47382,-0.44382 z" />
      <path
         inkscape:connector-curvature="0"
         id="path852"
         style="font-style:normal;font-variant:normal;font-weight:normal;font-stretch:normal;font-family:MankSans-Medium;-inkscape-font-specification:MankSans-Medium;stroke-width:3.69855"
         d="m 484.49957,137.48247 q 0,-1.47941 -0.44382,-2.81088 -0.29589,-1.33147 -1.7753,-2.07118 -0.7397,0 -3.10676,1.03559 -2.21911,1.03559 -5.47381,2.21912 -3.2547,1.18352 -6.95323,2.21911 -3.55058,1.03559 -6.95323,1.03559 -6.5094,0 -10.94763,-2.515 -4.29029,-2.515 -7.10117,-6.5094 -2.81088,-4.14235 -3.9944,-9.46823 -1.18353,-5.32587 -1.18353,-10.94763 0,-5.62176 1.33147,-10.35587 1.33147,-4.882052 4.14234,-8.432636 2.95882,-3.550584 7.24911,-5.621758 4.43823,-2.071174 10.50381,-2.071174 2.81088,0 5.62176,0.739705 2.95882,0.739705 5.62176,1.627351 2.81088,0.887646 5.02999,1.627351 2.36706,0.739705 3.84647,0.739705 1.18353,0 1.92323,-0.739705 0.73971,-0.887646 0.73971,-2.071174 v -4.882053 l -1.18353,-1.775292 q -5.03,-2.071174 -10.65175,-2.95882 -5.47382,-0.887646 -10.94764,-0.887646 -8.28469,0 -14.35027,2.514997 -6.06558,2.514997 -10.20793,7.249109 -3.99441,4.586171 -6.06558,11.095575 -1.92324,6.361465 -1.92324,14.202335 0,8.13675 1.62736,15.08998 1.77529,6.95323 5.62175,12.13116 3.84647,5.03 10.05999,7.98882 6.21352,2.81088 15.23792,2.81088 5.91764,0 12.27911,-1.47941 6.5094,-1.47941 11.68733,-4.43823 l 0.73971,-1.62736 z" />
      <path
         inkscape:connector-curvature="0"
         id="path854"
         style="font-style:normal;font-variant:normal;font-weight:normal;font-stretch:normal;font-family:MankSans-Medium;-inkscape-font-specification:MankSans-Medium;stroke-width:3.69855"
         d="m 551.14931,143.99187 q 0,-0.44382 -2.66294,-3.2547 -2.515,-2.81088 -6.50941,-6.65735 -3.9944,-3.9944 -8.87646,-8.58057 -4.73411,-4.58617 -9.0244,-8.58058 -4.29029,-4.14235 -7.69293,-7.24911 -3.40264,-3.10676 -4.43823,-4.14235 l 32.69496,-26.481436 0.73971,-1.331469 q 0,-1.331469 -0.88765,-2.219115 -0.7397,-1.035587 -2.07117,-1.035587 h -5.62176 q -7.54499,6.213522 -14.7941,12.427044 -7.24911,6.065581 -14.7941,12.279102 V 37.326414 q -0.29588,-0.739705 -1.18353,-1.627351 -0.88764,-0.887646 -1.62735,-1.183528 h -3.55058 q -0.88765,0.295882 -1.77529,1.183528 -0.88765,0.739705 -1.18353,1.627351 V 143.99187 l 0.7397,1.33147 1.77529,1.47941 h 4.14235 q 0.73971,-0.29588 1.62735,-1.18353 0.88765,-0.88764 1.18353,-1.62735 V 113.0722 l 35.06202,33.73055 h 5.7697 q 1.03558,0 1.92323,-0.88765 1.03559,-0.88764 1.03559,-1.92323 z" />
    </g>
    <g
       transform="matrix(1.1223189,0,0,1.1223189,-67.486445,-18.98909)"
       style="font-style:normal;font-weight:normal;font-size:37.5px;line-height:1.25;font-family:sans-serif;fill:#000000;fill-opacity:1;stroke:none;stroke-width:0.9375"
       id="text1449"
       aria-label="by botlab">
      <path
         inkscape:connector-curvature="0"
         id="path1451"
         style="font-style:normal;font-variant:normal;font-weight:normal;font-stretch:normal;font-family:MankSans-Medium;-inkscape-font-specification:MankSans-Medium;stroke-width:0.9375"
         d="m 420.03616,173.20504 q 0,-3.8625 -1.8375,-5.8125 -1.8375,-1.95 -5.775,-1.95 -1.5375,0 -2.9625,0.525 -1.3875,0.4875 -2.475,1.575 v -11.5875 q -0.075,-0.1875 -0.3,-0.4125 -0.225,-0.225 -0.4125,-0.3 h -0.975 q -0.225,0.075 -0.4125,0.3 -0.1875,0.225 -0.2625,0.4125 v 27.075 q 0,0.225 0.15,0.4875 0.1875,0.225 0.45,0.225 0.3,0 0.525,0 0.2625,0 0.5625,-0.075 1.0875,0.15 2.175,0.1875 1.0875,0.0375 2.175,0.0375 2.25,0 3.975,-0.8625 1.7625,-0.9 2.9625,-2.3625 1.2,-1.5 1.8,-3.4125 0.6375,-1.95 0.6375,-4.05 z m -2.3625,0 q 0,1.575 -0.45,3.1125 -0.4125,1.5375 -1.3125,2.7375 -0.8625,1.2 -2.175,1.95 -1.3125,0.7125 -3.075,0.7125 -0.9375,0 -1.875,0 -0.9,-0.0375 -1.8,-0.1125 v -9.7125 q 0,-0.975 0.525,-1.7625 0.525,-0.7875 1.3125,-1.35 0.825,-0.5625 1.7625,-0.8625 0.975,-0.3 1.8375,-0.3 2.775,0 4.0125,1.4625 1.2375,1.4625 1.2375,4.125 z" />
      <path
         inkscape:connector-curvature="0"
         id="path1453"
         style="font-style:normal;font-variant:normal;font-weight:normal;font-stretch:normal;font-family:MankSans-Medium;-inkscape-font-specification:MankSans-Medium;stroke-width:0.9375"
         d="m 439.63872,166.23004 q 0,-0.3 -0.225,-0.45 -0.225,-0.15 -0.4875,-0.15 h -1.2375 l -0.4875,0.2625 q -1.5375,3.5625 -3.075,7.125 -1.5,3.5625 -3.1875,7.0875 l -5.9625,-14.2125 -0.4875,-0.2625 -0.9,-0.0375 q -0.3375,0 -0.675,0.15 -0.3,0.1125 -0.3,0.525 0,0.1125 0.45,1.275 0.45,1.125 1.1625,2.85 0.7125,1.6875 1.5375,3.7125 0.8625,1.9875 1.6125,3.825 0.75,1.8 1.35,3.1875 0.6,1.3875 0.7875,1.8375 -0.15,0.45 -0.7125,1.5375 -0.525,1.0875 -1.125,2.2875 -0.5625,1.2 -1.0125,2.2125 -0.45,1.0125 -0.45,1.275 0,0.3 0.225,0.45 0.2625,0.15 0.525,0.15 h 1.2 l 0.45,-0.225 q 0.2625,-0.6 0.8625,-1.95 0.6,-1.3125 1.425,-3.075 0.825,-1.7625 1.8,-3.8625 0.975,-2.1 1.9125,-4.2 0.975,-2.1 1.875,-4.05 0.9375,-1.9875 1.6125,-3.525 0.7125,-1.575 1.125,-2.5875 0.4125,-1.0125 0.4125,-1.1625 z" />
      <path
         inkscape:connector-curvature="0"
         id="path1455"
         style="font-style:normal;font-variant:normal;font-weight:normal;font-stretch:normal;font-family:MankSans-Medium;-inkscape-font-specification:MankSans-Medium;stroke-width:0.9375"
         d="m 468.8887,173.20504 q 0,-3.8625 -1.8375,-5.8125 -1.8375,-1.95 -5.775,-1.95 -1.5375,0 -2.9625,0.525 -1.3875,0.4875 -2.475,1.575 v -11.5875 q -0.075,-0.1875 -0.3,-0.4125 -0.225,-0.225 -0.4125,-0.3 h -0.975 q -0.225,0.075 -0.4125,0.3 -0.1875,0.225 -0.2625,0.4125 v 27.075 q 0,0.225 0.15,0.4875 0.1875,0.225 0.45,0.225 0.3,0 0.525,0 0.2625,0 0.5625,-0.075 1.0875,0.15 2.175,0.1875 1.0875,0.0375 2.175,0.0375 2.25,0 3.975,-0.8625 1.7625,-0.9 2.9625,-2.3625 1.2,-1.5 1.8,-3.4125 0.6375,-1.95 0.6375,-4.05 z m -2.3625,0 q 0,1.575 -0.45,3.1125 -0.4125,1.5375 -1.3125,2.7375 -0.8625,1.2 -2.175,1.95 -1.3125,0.7125 -3.075,0.7125 -0.9375,0 -1.875,0 -0.9,-0.0375 -1.8,-0.1125 v -9.7125 q 0,-0.975 0.525,-1.7625 0.525,-0.7875 1.3125,-1.35 0.825,-0.5625 1.7625,-0.8625 0.975,-0.3 1.8375,-0.3 2.775,0 4.0125,1.4625 1.2375,1.4625 1.2375,4.125 z" />
      <path
         inkscape:connector-curvature="0"
         id="path1457"
         style="font-style:normal;font-variant:normal;font-weight:normal;font-stretch:normal;font-family:MankSans-Medium;-inkscape-font-specification:MankSans-Medium;stroke-width:0.9375"
         d="m 489.24944,174.55504 q 0,-2.1375 -0.4875,-3.825 -0.4875,-1.6875 -1.5,-2.8875 -1.0125,-1.2 -2.625,-1.8375 -1.575,-0.6375 -3.825,-0.6375 -2.2125,0 -3.825,0.6375 -1.6125,0.6375 -2.6625,1.8375 -1.0125,1.2 -1.5,2.8875 -0.4875,1.6875 -0.4875,3.825 0,2.025 0.525,3.75 0.525,1.6875 1.575,2.9625 1.0875,1.2375 2.6625,1.95 1.6125,0.675 3.75,0.675 2.1375,0 3.7125,-0.7125 1.575,-0.7125 2.625,-1.95 1.05,-1.2375 1.5375,-2.925 0.525,-1.725 0.525,-3.75 z m -2.4,-0.375 q 0,1.5 -0.3375,2.8875 -0.3,1.35 -1.0125,2.4 -0.675,1.0125 -1.8375,1.65 -1.1625,0.6 -2.85,0.6 -1.575,0 -2.7375,-0.5625 -1.125,-0.6 -1.9125,-1.575 -0.75,-0.975 -1.125,-2.2875 -0.3375,-1.3125 -0.3375,-2.7375 0,-1.5 0.3375,-2.775 0.375,-1.3125 1.0875,-2.25 0.75,-0.9375 1.9125,-1.4625 1.1625,-0.525 2.8125,-0.525 1.6875,0 2.8125,0.4875 1.1625,0.45 1.875,1.3125 0.7125,0.8625 1.0125,2.1 0.3,1.2 0.3,2.7375 z" />
      <path
         inkscape:connector-curvature="0"
         id="path1459"
         style="font-style:normal;font-variant:normal;font-weight:normal;font-stretch:normal;font-family:MankSans-Medium;-inkscape-font-specification:MankSans-Medium;stroke-width:0.9375"
         d="m 504.14632,181.45504 q 0.0375,-0.3375 -0.1125,-0.675 -0.1125,-0.3375 -0.5625,-0.3375 -0.15,0 -0.5625,0.225 -0.375,0.1875 -0.9,0.4125 -0.525,0.225 -1.1625,0.45 -0.6,0.1875 -1.2,0.1875 -0.75,0 -1.2375,-0.3375 -0.4875,-0.3375 -0.7875,-0.8625 -0.2625,-0.5625 -0.375,-1.2 -0.075,-0.6375 -0.075,-1.275 v -9.6375 h 5.7375 q 0.1875,-0.075 0.4125,-0.3 0.225,-0.225 0.3,-0.4125 v -0.825 q -0.075,-0.1875 -0.2625,-0.375 -0.15,-0.225 -0.3375,-0.3375 h -5.85 v -4.6875 l -0.1875,-0.3375 -0.45,-0.375 h -0.8625 q -0.1875,0.075 -0.4125,0.2625 -0.1875,0.15 -0.3,0.3 -0.0375,1.2 -0.0375,2.4375 0,1.2 -0.075,2.4 h -2.1 q -0.3375,0.1125 -0.6,0.45 l -0.1125,0.2625 v 0.825 l 0.15,0.3375 0.45,0.375 h 2.2125 v 9.6375 q 0,1.3125 0.1875,2.4 0.225,1.05 0.75,1.8375 0.5625,0.75 1.5,1.2 0.9375,0.4125 2.4,0.4125 1.05,0 2.2125,-0.2625 1.1625,-0.3 2.025,-0.8625 l 0.225,-0.4125 z" />
      <path
         inkscape:connector-curvature="0"
         id="path1461"
         style="font-style:normal;font-variant:normal;font-weight:normal;font-stretch:normal;font-family:MankSans-Medium;-inkscape-font-specification:MankSans-Medium;stroke-width:0.9375"
         d="m 517.28596,182.61754 q 0,-0.1875 0,-0.4875 0,-0.3375 -0.075,-0.6375 -0.0375,-0.3 -0.1875,-0.525 -0.15,-0.225 -0.4125,-0.225 -0.2625,0 -0.4875,0.15 -0.1875,0.15 -0.4875,0.3375 -0.2625,0.1875 -0.675,0.3375 -0.375,0.15 -0.9375,0.15 -1.35,0 -2.0625,-0.7875 -0.7125,-0.825 -1.05,-1.9875 -0.3,-1.1625 -0.375,-2.4375 -0.0375,-1.275 -0.0375,-2.2125 0,-4.6125 0,-9.15 0.0375,-4.575 0.0375,-9.1875 -0.075,-0.1875 -0.3,-0.4125 -0.225,-0.225 -0.4125,-0.3 h -0.9375 l -0.3,0.15 q -0.1125,0.1125 -0.225,0.2625 -0.1125,0.1125 -0.1875,0.3 v 18.3375 q 0,1.575 0.1125,3.3 0.15,1.6875 0.7125,3.1125 0.6,1.3875 1.7625,2.2875 1.2,0.9 3.2625,0.9 0.75,0 1.5375,-0.1875 0.825,-0.1875 1.4625,-0.6 z" />
      <path
         inkscape:connector-curvature="0"
         id="path1463"
         style="font-style:normal;font-variant:normal;font-weight:normal;font-stretch:normal;font-family:MankSans-Medium;-inkscape-font-specification:MankSans-Medium;stroke-width:0.9375"
         d="m 533.00315,182.95504 v -12.0375 q 0,-1.6125 -0.4125,-2.6625 -0.4125,-1.0875 -1.2375,-1.6875 -0.7875,-0.6375 -1.95,-0.8625 -1.1625,-0.2625 -2.6625,-0.2625 -0.7125,0 -1.725,0.2625 -1.0125,0.225 -1.95,0.5625 -0.9375,0.3 -1.6125,0.5625 -0.6375,0.225 -0.6375,0.225 l -0.225,0.45 v 0.5625 q 0,0.375 0.075,0.9 0.1125,0.4875 0.6375,0.4875 0.1125,0 0.6375,-0.2625 0.5625,-0.3 1.3125,-0.6375 0.7875,-0.375 1.6875,-0.6375 0.9375,-0.3 1.8375,-0.3 1.8,0 2.8125,0.675 1.05,0.675 1.05,2.625 v 1.5 q -1.0875,0 -2.325,0.0375 -1.2375,0 -2.475,0.15 -1.2375,0.1125 -2.4,0.45 -1.125,0.3375 -2.025,1.0125 -0.8625,0.6375 -1.3875,1.65 -0.525,1.0125 -0.525,2.55 0,1.2375 0.4125,2.2875 0.4125,1.05 1.1625,1.8 0.7875,0.7125 1.8,1.125 1.05,0.4125 2.2875,0.4125 1.6875,0 3.1125,-0.7125 1.425,-0.7125 2.4375,-2.0625 l 0.0375,1.8375 q 0.075,0.1875 0.1875,0.3375 0.1125,0.1125 0.225,0.225 l 0.3,0.15 h 0.7875 q 0.225,-0.075 0.45,-0.2625 0.225,-0.225 0.3,-0.45 z m -2.25,-8.7 -0.1875,0.375 q 0,1.3125 -0.2625,2.5875 -0.2625,1.2375 -0.9,2.25 -0.6,1.0125 -1.65,1.65 -1.05,0.6 -2.625,0.6 -0.7125,0 -1.275,-0.3 -0.5625,-0.3 -0.975,-0.75 -0.4125,-0.4875 -0.6375,-1.0875 -0.225,-0.6375 -0.225,-1.3125 0,-1.0125 0.375,-1.6875 0.375,-0.675 1.0125,-1.0875 0.6375,-0.45 1.425,-0.675 0.7875,-0.225 1.65,-0.3 0.375,-0.0375 0.7875,0 0.45,0 0.75,-0.075 0.675,-0.1875 1.35,-0.075 0.7125,0.075 1.3875,-0.1125 z" />
      <path
         inkscape:connector-curvature="0"
         id="path1465"
         style="font-style:normal;font-variant:normal;font-weight:normal;font-stretch:normal;font-family:MankSans-Medium;-inkscape-font-specification:MankSans-Medium;stroke-width:0.9375"
         d="m 551.72561,173.20504 q 0,-3.8625 -1.8375,-5.8125 -1.8375,-1.95 -5.775,-1.95 -1.5375,0 -2.9625,0.525 -1.3875,0.4875 -2.475,1.575 v -11.5875 q -0.075,-0.1875 -0.3,-0.4125 -0.225,-0.225 -0.4125,-0.3 h -0.975 q -0.225,0.075 -0.4125,0.3 -0.1875,0.225 -0.2625,0.4125 v 27.075 q 0,0.225 0.15,0.4875 0.1875,0.225 0.45,0.225 0.3,0 0.525,0 0.2625,0 0.5625,-0.075 1.0875,0.15 2.175,0.1875 1.0875,0.0375 2.175,0.0375 2.25,0 3.975,-0.8625 1.7625,-0.9 2.9625,-2.3625 1.2,-1.5 1.8,-3.4125 0.6375,-1.95 0.6375,-4.05 z m -2.3625,0 q 0,1.575 -0.45,3.1125 -0.4125,1.5375 -1.3125,2.7375 -0.8625,1.2 -2.175,1.95 -1.3125,0.7125 -3.075,0.7125 -0.9375,0 -1.875,0 -0.9,-0.0375 -1.8,-0.1125 v -9.7125 q 0,-0.975 0.525,-1.7625 0.525,-0.7875 1.3125,-1.35 0.825,-0.5625 1.7625,-0.8625 0.975,-0.3 1.8375,-0.3 2.775,0 4.0125,1.4625 1.2375,1.4625 1.2375,4.125 z" />
    </g>
  </g>
</svg>
