<?xml version="1.0" encoding="UTF-8" standalone="no"?>
<svg
   xmlns:dc="http://purl.org/dc/elements/1.1/"
   xmlns:cc="http://creativecommons.org/ns#"
   xmlns:rdf="http://www.w3.org/1999/02/22-rdf-syntax-ns#"
   xmlns:svg="http://www.w3.org/2000/svg"
   xmlns="http://www.w3.org/2000/svg"
   xmlns:sodipodi="http://sodipodi.sourceforge.net/DTD/sodipodi-0.dtd"
   xmlns:inkscape="http://www.inkscape.org/namespaces/inkscape"
   width="53.358139mm"
   height="14.685325mm"
   viewBox="0 0 53.358139 14.685325"
   version="1.1"
   id="svg8"
   inkscape:version="1.0.1 (3bc2e813f5, 2020-09-07)"
   sodipodi:docname="logo-cero.svg">
  <defs
     id="defs2" />
  <sodipodi:namedview
     id="base"
     pagecolor="#ffffff"
     bordercolor="#666666"
     borderopacity="1.0"
     inkscape:pageopacity="0.0"
     inkscape:pageshadow="2"
     inkscape:zoom="2.8"
     inkscape:cx="81.372789"
     inkscape:cy="17.655408"
     inkscape:document-units="mm"
     inkscape:current-layer="layer1"
     inkscape:document-rotation="0"
     showgrid="false"
     fit-margin-top="0"
     fit-margin-left="0"
     fit-margin-right="0"
     fit-margin-bottom="0"
     inkscape:window-width="1920"
     inkscape:window-height="986"
     inkscape:window-x="-11"
     inkscape:window-y="-11"
     inkscape:window-maximized="1" />
  <metadata
     id="metadata5">
    <rdf:RDF>
      <cc:Work
         rdf:about="">
        <dc:format>image/svg+xml</dc:format>
        <dc:type
           rdf:resource="http://purl.org/dc/dcmitype/StillImage" />
        <dc:title></dc:title>
      </cc:Work>
    </rdf:RDF>
  </metadata>
  <g
     inkscape:label="Capa 1"
     inkscape:groupmode="layer"
     id="layer1"
     transform="translate(-85.687439,-105.87383)">
    <path
       style="fill:#ffffff;stroke-width:0.264583"
       d="m 89.771034,119.88881 c -4.467678,-2.08039 -5.508605,-8.55937 -1.926702,-11.99226 2.62461,-2.51542 7.753143,-2.69323 9.880466,-0.34257 0.53234,0.58823 0.35278,0.93866 -0.9599,1.87338 -0.74065,0.52738 -0.74092,0.52738 -1.798895,-0.0123 -3.447826,-1.75895 -6.908981,1.31749 -5.860968,5.20951 0.356029,1.32219 1.750325,2.62102 3.081827,2.87081 2.038207,0.38237 4.357516,-1.01915 4.753736,-2.87261 0.26647,-1.24651 0.5883,-1.5142 1.82046,-1.5142 1.446982,0 1.733132,0.31082 1.449262,1.57421 -0.376212,1.67439 -0.699112,2.31745 -1.747662,3.48056 -2.10755,2.3378 -5.801752,3.0712 -8.691624,1.72552 z m 15.625136,0.004 c -1.63315,-0.76387 -2.93482,-2.0455 -3.66585,-3.6094 -0.78826,-1.68634 -0.77785,-4.73881 0.0213,-6.24852 1.4781,-2.79233 3.66405,-4.15131 6.64742,-4.13264 3.88197,0.0243 6.56087,2.47696 7.32068,6.70243 0.3125,1.73786 0.0284,1.82665 -5.84455,1.82665 -4.52984,0 -5.14047,0.0502 -5.14047,0.42218 0,0.75954 1.02996,1.89026 2.11861,2.32585 1.47187,0.58892 2.33835,0.53648 3.85582,-0.23339 1.58014,-0.80165 4.6089,-0.96797 4.6089,-0.25308 0,0.74599 -2.45351,2.91483 -3.82675,3.38274 -1.91121,0.65121 -4.47647,0.57427 -6.09512,-0.18282 z m 6.39039,-8.77863 c 0.18322,-0.47746 -0.53604,-1.34602 -1.54798,-1.86932 -0.93276,-0.48234 -2.68696,-0.47184 -3.64157,0.0218 -0.88217,0.45619 -1.92007,1.68214 -1.71079,2.02077 0.0794,0.12841 1.62929,0.23348 3.44428,0.23348 2.72478,0 3.32719,-0.0709 3.45606,-0.40673 z m 5.71292,9.09691 c -0.24498,-0.24498 -0.32936,-2.00472 -0.32936,-6.86937 0,-3.59702 0.0723,-6.72836 0.1606,-6.95855 0.22639,-0.58995 2.40926,-0.56928 3.07044,0.0291 0.46453,0.4204 0.54061,0.4204 1.25228,0 0.96501,-0.57004 2.28635,-0.58541 2.49984,-0.0291 0.21889,0.57042 0.19537,1.76482 -0.0419,2.12794 -0.10692,0.16362 -0.57635,0.38034 -1.0432,0.48161 -0.64716,0.14037 -2.06377,1.32019 -2.49072,2.07438 -0.0177,0.0313 -0.10702,2.14053 -0.19843,4.68715 -0.16621,4.6302 -0.16621,4.6302 -1.35821,4.7082 -0.69824,0.0457 -1.32843,-0.0584 -1.52135,-0.25136 z m 10.90072,-0.309 c -4.47423,-2.12823 -5.50848,-8.57287 -1.9267,-12.00565 2.21919,-2.12686 5.87015,-2.64492 8.64365,-1.2265 4.32971,2.21429 5.28427,8.32495 1.8387,11.77053 -1.41422,1.41421 -2.68564,1.91589 -5.10135,2.01289 -1.79821,0.0722 -2.31791,-0.0107 -3.4543,-0.55127 z m 5.47988,-3.03369 c 1.66409,-0.95923 2.33943,-3.94918 1.32828,-5.88078 -0.55135,-1.05325 -2.36143,-2.11277 -3.60836,-2.11213 -2.61319,0.001 -4.6589,2.94877 -3.87126,5.57767 0.79999,2.67014 3.7201,3.81668 6.15134,2.41524 z"
       id="path2754" />
  </g>
</svg>
